<?xml version="1.0" encoding="UTF-8"?>
<svg enable-background="new 0 0 22 12" version="1.1" viewBox="0 0 22 12" xml:space="preserve" xmlns="http://www.w3.org/2000/svg">
  <path d="m17.6 12c-0.3 0-0.9-0.1-1.5-0.5-0.5-0.3-0.9-0.7-1.3-1.2-0.3-0.3-0.9-0.9-1.1-0.9-0.2 0.1-0.4 0.7-0.3 1.2 0 0.1 0 0.6-0.3 0.9s-0.8 0.4-0.9 0.4h-1.4c-0.7 0-3.2-0.2-5.4-2.3-2.9-2.5-5.2-7.4-5.3-7.6-0.1-0.4-0.2-0.8 0.1-1.1s0.8-0.4 1-0.4h3.1c0.1 0 0.4 0.1 0.7 0.3s0.4 0.5 0.5 0.6c0.7 1.5 1.5 2.8 2.6 4 0.1-0.4 0.2-1.4 0.1-2.3 0-0.4-0.1-0.8-0.2-1-0.1-0.1-0.3-0.2-0.5-0.2l-0.6-0.5c0-0.5 0.5-0.9 0.9-1.1 0.5-0.2 1.3-0.3 2.3-0.3h0.5c0.9 0 1.2 0.1 1.6 0.1 1.2 0.3 1.2 1.3 1.1 2.5v1.6c0 0.3 0 0.8 0.1 1 0.2-0.1 0.6-0.5 1.5-1.9 0.6-0.9 1-1.9 1.1-2.1 0.1-0.3 0.4-0.7 1.2-0.7h3.4c0.7 0 1.2 0.2 1.3 0.7 0.2 0.5 0.1 1.3-1.7 3.5-0.3 0.3-0.5 0.6-0.7 0.9-0.5 0.4-0.9 1-0.9 1.1s0.5 0.5 0.9 0.9c1.1 0.9 1.9 1.7 2.2 2.3 0.4 0.6 0.3 1 0.2 1.3-0.3 0.7-1.2 0.7-1.4 0.8h-2.8-0.1zm-3.9-3.7c0.7 0 1.2 0.6 1.8 1.2 0.4 0.4 0.7 0.8 1.1 1 0.5 0.3 1 0.3 1 0.3h2.9c0.1 0 0.3-0.1 0.4-0.1 0 0 0-0.1-0.1-0.1-0.3-0.5-1-1.3-2-2.1-0.9-0.7-1.3-1.1-1.4-1.7 0-0.6 0.4-1.1 1.2-2.1 0.2-0.2 0.4-0.5 0.7-0.8 1.1-1.4 1.4-2 1.5-2.3h-3.9c0 0.4-0.5 1.5-1.1 2.4-1.4 2.1-2 2.4-2.5 2.4-0.1 0-0.3 0-0.4-0.1-0.7-0.4-0.7-1.4-0.7-2.1v-1.6c0.1-1.3 0-1.3-0.3-1.4s-0.5-0.1-1.4-0.1h-0.5c-0.5 0-1 0-1.4 0.1l0.2 0.2c0.4 0.5 0.4 1.5 0.4 1.7 0.1 1.3 0 2.9-0.7 3.3-0.1 0-0.2 0.1-0.4 0.1-0.6 0-1.3-0.7-2.5-2.5-0.6-1.1-1.1-2.2-1.1-2.2s0-0.1-0.1-0.1-0.2-0.1-0.2-0.1h-3c0.4 0.9 2.5 5 4.8 7.2 2 1.9 4.3 2 4.7 2h1.4s0.2 0 0.2-0.1v-0.1c0-0.2 0-2 1.2-2.3h0.2z"/>
</svg>
